<?xml version="1.0" encoding="utf-8"?>
<!-- Generator: Adobe Illustrator 22.1.0, SVG Export Plug-In . SVG Version: 6.00 Build 0)  -->
<svg version="1.1" id="Layer_1" xmlns="http://www.w3.org/2000/svg" xmlns:xlink="http://www.w3.org/1999/xlink" x="0px" y="0px"
	 viewBox="0 0 950 670" style="enable-background:new 0 0 950 670;" xml:space="preserve">
<style type="text/css">
	.st0{fill:#8672E8;}
	.st1{fill:#FFFFFF;stroke:#FFFFFF;stroke-width:1.048;stroke-miterlimit:10;}
	.st2{fill:#FFFFFF;stroke:#FFFFFF;stroke-width:0.25;stroke-miterlimit:10;}
</style>
<rect x="0.4" y="-0.3" class="st0" width="950" height="670"/>
<g>
	<path class="st1" d="M437.7,56.3c-0.3,3.8-1.1,6.3-3.2,9.1c-3.5,4.9-8.8,7.6-14.6,7.6c-5,0-9.6-1.9-13.1-5.5
		c-3.8-4-5.8-9.2-5.8-15.8c0-12.9,7.8-21.7,19.2-21.7c5.9,0,11,2.5,14.3,7c1.5,2,2.2,3.7,2.7,6.6h-1.1c-1.7-7.8-7.6-12.5-15.9-12.5
		c-11,0-18.2,8.3-18.2,20.8c0,6.5,1.7,11.2,5.5,15.1c3.4,3.4,7.6,5.2,12.4,5.2c6.1,0,11.4-3,14.6-8.4c1.4-2.2,1.9-4.2,2.2-7.3H437.7
		z"/>
	<path class="st1" d="M476.6,72.2h-1v-21h-29.2v21h-1V30.8h1v19.4h29.2V30.8h1V72.2z"/>
	<path class="st1" d="M489.3,58.8l-5.5,13.5h-1.1l16.9-41.4h1.1l16.6,41.4h-1.2l-5.4-13.5H489.3z M500.1,32.3l-10.3,25.5h20.4
		L500.1,32.3z"/>
	<path class="st1" d="M523.2,30.8h1.5l28.7,40.1V30.8h1v41.4h-1.4L524.2,32v40.3h-1V30.8z"/>
	<path class="st1" d="M609.3,72.2l-15.4-20.4l-15.4,20.4h-1.3l16.1-21.3l-15.1-20.1h1.3l14.5,19.3l14.6-19.3h1.3l-15.2,20.1l16,21.3
		H609.3z"/>
	<path class="st1" d="M666.5,56.3c-0.3,3.8-1.1,6.3-3.2,9.1c-3.5,4.9-8.8,7.6-14.6,7.6c-5,0-9.6-1.9-13.1-5.5
		c-3.8-4-5.8-9.2-5.8-15.8c0-12.9,7.8-21.7,19.2-21.7c5.9,0,11,2.5,14.3,7c1.5,2,2.2,3.7,2.7,6.6h-1.1C663.3,35.7,657.3,31,649,31
		c-11,0-18.2,8.3-18.2,20.8c0,6.5,1.7,11.2,5.5,15.1c3.4,3.4,7.6,5.2,12.4,5.2c6.1,0,11.4-3,14.6-8.4c1.4-2.2,1.9-4.2,2.2-7.3H666.5
		z"/>
	<path class="st1" d="M708.9,51.4c0,6.5-1.7,11.6-5.4,15.6s-8.1,6-14.1,6c-11.1,0-18.9-8.9-18.9-21.5c0-12.7,7.8-21.5,19.2-21.5
		C701.1,30,708.9,38.8,708.9,51.4z M671.5,51.5c0,12.1,7.4,20.5,17.9,20.5c5.7,0,9.9-1.8,13.4-5.6c3.4-3.8,5.1-8.7,5.1-15
		c0-12.1-7.4-20.4-18.2-20.4C678.8,31,671.5,39.3,671.5,51.5z"/>
</g>
<g>
	<path class="st2" d="M316.4,24h-0.2v-8h0.2V24z"/>
	<path class="st2" d="M318.7,16h0.2v7.8h4.7V24h-4.9V16z"/>
	<path class="st2" d="M325.1,16h0.2v7.8h4.7V24h-4.9V16z"/>
	<path class="st2" d="M336.6,16v4.8c0,1.3-0.2,2-0.7,2.6c-0.5,0.6-1.2,0.8-2.2,0.8c-1.1,0-1.9-0.3-2.4-1c-0.4-0.6-0.6-1.1-0.6-2.4
		V16h0.2v4.8c0,1.2,0.2,1.9,0.7,2.4c0.5,0.5,1.2,0.8,2.1,0.8c1.1,0,1.8-0.3,2.3-1c0.4-0.5,0.5-1.1,0.5-2.2V16H336.6z"/>
	<path class="st2" d="M338.5,21v0.4c0,1.7,1,2.6,3,2.6c0.8,0,1.3-0.1,1.8-0.4c0.6-0.4,0.9-1,0.9-1.6c0-0.6-0.2-1-0.6-1.3
		c-0.3-0.2-0.7-0.3-1.4-0.6l-1.6-0.4c-0.7-0.2-1-0.3-1.3-0.5c-0.4-0.3-0.7-0.8-0.7-1.3c0-1.2,1-2,2.7-2c1.3,0,2.3,0.5,2.7,1.3
		c0.2,0.4,0.2,0.6,0.2,1.4h-0.2c0-0.7,0-0.9-0.2-1.3c-0.3-0.8-1.3-1.2-2.5-1.2c-1.5,0-2.5,0.7-2.5,1.8c0,0.5,0.2,0.9,0.6,1.1
		c0.3,0.2,0.5,0.3,1.3,0.5l1.6,0.4c1,0.3,1.2,0.4,1.5,0.6c0.4,0.3,0.7,0.8,0.7,1.4c0,1.4-1.2,2.3-3,2.3c-2,0-3.1-1-3.1-2.9V21H338.5
		z"/>
	<path class="st2" d="M347.5,24v-7.8h-2.9V16h6v0.2h-2.9V24H347.5z"/>
	<path class="st2" d="M352,16h2.9c1,0,1.6,0.1,2,0.5c0.5,0.4,0.8,0.9,0.8,1.7c0,0.6-0.2,1.2-0.7,1.5c-0.3,0.3-0.6,0.4-1.2,0.5
		c0.8,0.1,1.2,0.3,1.5,0.7c0.3,0.5,0.3,0.6,0.4,2.4c0,0.4,0,0.5,0.1,0.8h-0.2c-0.1-0.2-0.1-0.4-0.1-0.8c0-1.2-0.1-1.6-0.2-1.9
		c-0.2-0.8-0.9-1.2-2.2-1.2h-2.9V24H352V16z M355.1,20c1.5,0,2.4-0.7,2.4-1.9c0-0.7-0.3-1.3-0.9-1.6c-0.4-0.2-0.9-0.3-1.9-0.3h-2.6
		V20H355.1z"/>
	<path class="st2" d="M359.7,21.4l-1.1,2.6h-0.2l3.3-8h0.2l3.2,8h-0.2l-1-2.6H359.7z M361.8,16.3l-2,4.9h3.9L361.8,16.3z"/>
	<path class="st2" d="M367.2,24v-7.8h-2.9V16h6v0.2h-2.9V24H367.2z"/>
	<path class="st2" d="M371.7,16h5.3v0.2h-5.1v3.6h4.8V20h-4.8v3.9h5.1V24h-5.3V16z"/>
	<path class="st2" d="M379,16h2.4c1.3,0,2.1,0.3,2.8,0.9c0.7,0.6,1.1,1.8,1.1,3.1c0,1.3-0.4,2.4-1.1,3.1c-0.6,0.6-1.4,0.9-2.7,0.9
		H379V16z M381.3,23.8c1.4,0,2.2-0.3,2.8-1c0.6-0.7,0.9-1.7,0.9-2.8c0-1.3-0.4-2.4-1.2-3c-0.6-0.5-1.3-0.7-2.6-0.7h-2.1v7.6H381.3z"
		/>
	<path class="st2" d="M389.7,16h3c1.6,0,2.7,0.8,2.7,2c0,0.6-0.2,1.1-0.6,1.4c-0.3,0.2-0.6,0.4-1.1,0.5c0.7,0.1,1,0.2,1.4,0.5
		c0.4,0.3,0.7,0.9,0.7,1.5c0,0.7-0.4,1.4-1,1.8c-0.4,0.2-1.2,0.4-2,0.4h-3V16z M392.8,19.8c0.8,0,1.3-0.2,1.7-0.5
		c0.4-0.3,0.6-0.8,0.6-1.3c0-1.1-0.9-1.8-2.5-1.8h-2.8v3.6H392.8z M392.7,23.8c1,0,1.6-0.1,2-0.5c0.5-0.4,0.7-0.9,0.7-1.5
		c0-0.7-0.3-1.2-0.9-1.5c-0.4-0.2-1-0.3-1.7-0.3h-3v3.9H392.7z"/>
	<path class="st2" d="M399,24v-3.4l-3.3-4.6h0.2l3.2,4.4l3.1-4.4h0.2l-3.2,4.6V24H399z"/>
</g>
</svg>
