<?xml version="1.0" encoding="utf-8"?>
<!-- Generator: Adobe Illustrator 22.1.0, SVG Export Plug-In . SVG Version: 6.00 Build 0)  -->
<svg version="1.1" id="Layer_2" xmlns="http://www.w3.org/2000/svg" xmlns:xlink="http://www.w3.org/1999/xlink" x="0px" y="0px"
	 viewBox="0 0 760 140" style="enable-background:new 0 0 760 140;" xml:space="preserve">
<style type="text/css">
	.st0{fill:#FFFFFF;stroke:#FFFFFF;stroke-width:5;stroke-linecap:round;stroke-linejoin:round;stroke-miterlimit:10;}
	.st1{fill:none;stroke:#FFFFFF;stroke-width:5;stroke-miterlimit:10;}
</style>
<g>
	<path class="st0" d="M8.7,75.4v3.9c0,17.8,10.8,27.5,31,27.5c8.1,0,13.8-1.4,18.9-4.6c6.3-4,9.7-10,9.7-17.1
		c0-5.8-2.4-10.4-6.6-13.2c-3.3-2.1-7.4-3.6-15-5.8l-16.4-4.4c-7.1-2-10.5-3.3-13.5-5.1c-4.6-2.9-7.4-8.1-7.4-14
		c0-12.7,10.7-20.7,28-20.7c13.9,0,23.6,4.8,28,13.9c2.1,4.3,2.5,6.1,2.5,14.2h-2.1c-0.1-7.5-0.4-9.4-2.3-13.4
		c-3.6-8-13.4-12.7-26.2-12.7c-15.5,0-25.8,7.4-25.8,18.8c0,4.9,2.4,9.4,6.1,11.9c2.9,2,5.5,3,13.2,5.1l16.7,4.6
		c10,2.8,12.4,3.8,15.9,6.1c4.5,3.1,7.1,8.5,7.1,14.5c0,14.3-12.3,23.7-31,23.7c-21.1,0-32.6-10.5-32.6-30v-3.4H8.7z"/>
	<path class="st0" d="M91.8,107.1h-2V23.4h2V107.1z"/>
	<path class="st0" d="M116,23.4h3l58.1,81v-81h2v83.6h-2.8l-58.3-81.4v81.4h-2V23.4z"/>
	<path class="st0" d="M270.1,107.1h-2V82.8c-1.9,6.9-3.8,10.7-7.5,14.8c-6,6.9-16.2,11.2-26.7,11.2c-10.2,0-20.4-4-27.5-10.8
		c-7.8-7.5-11.9-18.4-11.9-31.5c0-26.1,15.7-44,38.6-44c17.1,0,30.5,10.5,35,27.6h-1.9c-4.1-15.7-16.8-25.6-33-25.6
		c-21.9,0-36.7,16.9-36.7,41.9c0,12.9,3.8,22.7,11.3,30.1c6.9,6.6,16,10.3,26.2,10.3c12.5,0,23.1-5.8,29.1-15.8
		c3.4-5.6,4.5-10.5,5-21.1h-32.8v-2h34.9V107.1z"/>
	<path class="st0" d="M372.6,107.1l-11-14c-6.4,10.8-13.8,15.7-24.2,15.7c-13.5,0-24.1-9.3-24.1-21.2c0-6.1,3.1-12.2,9-17.2
		c2.8-2.3,5.6-4.4,13.8-9.5l-6.6-7.9c-3.9-4.9-5.9-9.3-5.9-13.4c0-9.3,7.1-16,17.2-16c9.5,0,16.7,6.6,16.7,15.8
		c0,5.5-2.5,10-8.4,14.9c-1.9,1.6-2.6,2.1-9.8,7.3L361.2,89c2.1-4.8,3-9.3,3-14.4h2.3c0,5.6-1.4,11.4-3.9,16.5l12.4,15.9H372.6z
		 M337.2,62.6c-7.5,4.5-11.3,7.1-14.5,10c-4.9,4.3-7.4,9.4-7.4,14.8c0,10.8,9.8,19.3,22.1,19.3c5.4,0,10.5-1.9,14.9-5.5
		c3-2.4,4.8-4.6,7.9-9.9L337.2,62.6z M337.8,59.7c6.8-4.4,8.8-5.9,11.2-7.9c4.4-4,6.4-7.9,6.4-12.5c0-8.1-6-13.8-14.9-13.8
		c-8.8,0-14.9,5.6-14.9,13.8c0,4.1,1.1,6.6,5.3,11.7L337.8,59.7z"/>
	<path class="st0" d="M420,75.4v3.9c0,17.8,10.8,27.5,31,27.5c8.2,0,13.8-1.4,18.9-4.6c6.3-4,9.7-10,9.7-17.1
		c0-5.8-2.4-10.4-6.6-13.2c-3.3-2.1-7.4-3.6-15-5.8l-16.4-4.4c-7.1-2-10.5-3.3-13.5-5.1c-4.6-2.9-7.4-8.1-7.4-14
		c0-12.7,10.7-20.7,28-20.7c13.9,0,23.6,4.8,28,13.9c2.1,4.3,2.5,6.1,2.5,14.2h-2.1c-0.1-7.5-0.4-9.4-2.3-13.4
		c-3.6-8-13.4-12.7-26.2-12.7c-15.5,0-25.8,7.4-25.8,18.8c0,4.9,2.4,9.4,6.1,11.9c2.9,2,5.5,3,13.2,5.1l16.7,4.6
		c10,2.8,12.4,3.8,15.9,6.1c4.5,3.1,7.1,8.5,7.1,14.5c0,14.3-12.3,23.7-31,23.7c-21.1,0-32.6-10.5-32.6-30v-3.4H420z"/>
	<path class="st0" d="M499.5,23.4h3.4l36,81.5l36.2-81.5h3.3v83.6h-2V26.3l-36.2,80.7h-2.6l-36-80.7v80.7h-2V23.4z"/>
	<path class="st0" d="M604.5,107.1h-2V23.4h2V107.1z"/>
	<path class="st0" d="M628.7,23.4h2v81.6h49.5v2h-51.5V23.4z"/>
	<path class="st0" d="M694.9,23.4h55.8v2h-53.8v37.4h50.5v2h-50.5v40.2h53.8v2h-55.8V23.4z"/>
</g>
<line class="st1" x1="6.7" y1="124.8" x2="750.7" y2="124.8"/>
</svg>
