<?xml version="1.0" encoding="utf-8"?>
<!-- Generator: Adobe Illustrator 22.1.0, SVG Export Plug-In . SVG Version: 6.00 Build 0)  -->
<svg version="1.1" id="Layer_1" xmlns="http://www.w3.org/2000/svg" xmlns:xlink="http://www.w3.org/1999/xlink" x="0px" y="0px"
	 viewBox="0 0 750 140" style="enable-background:new 0 0 750 140;" xml:space="preserve">
<style type="text/css">
	.st0{fill:#FFFFFF;}
	.st1{fill:none;stroke:#FFFFFF;stroke-width:5.6975;stroke-miterlimit:10;}
	.st2{fill:none;stroke:#FFFFFF;stroke-width:1.8992;stroke-miterlimit:10;}
</style>
<g>
	<g>
		<path class="st0" d="M61.3,101.2H32.2L16.6,85.7V65.1h12.5L16.6,52.6V20.4L32.2,4.9h29.1l15.5,15.5V41H64.3l12.5,12.5v32.2
			L61.3,101.2z M74.4,54.6l-16-16h16V21.5L60.2,7.3h-27L19,21.5v30l16,16H19v17l14.2,14.2h27l14.2-14.2V54.6z M58.7,95.2h-24
			L22.7,83.2V71.1h18v6.1h12.1V62.1h-18l-12.1-12V23l12.1-12.1h24L70.8,23V35h-18V29H40.7v15h18l12.1,12.1v27.1L58.7,95.2z"/>
		<path class="st0" d="M88.8,101.2V4.9h30.1v96.3H88.8z M116.5,7.3H91.3v91.5h25.3V7.3z M94.9,95.2V10.9h18v84.3H94.9z"/>
		<path class="st0" d="M162.9,101.2l-1.8-4.9v4.9H131V4.9h28.3l1.8,4.9V4.9h30.1v96.3H162.9z M188.8,7.3h-25.3v16.5l-5.9-16.5h-24.2
			v91.5h25.3V82.3l5.9,16.5h24.2V7.3z M167.1,95.2l-12.1-33.7v33.7h-18V10.9h18l12.1,33.7V10.9h18v84.3H167.1z"/>
		<path class="st0" d="M247.9,101.2h-29.1l-15.6-15.5V20.4l15.6-15.5h29.1l15.5,15.5v65.2L247.9,101.2z M261,21.5L246.8,7.3h-27
			l-14.2,14.2v63.1l14.2,14.2h27L261,84.6V21.5z M245.4,95.2h-24l-12.1-12.1V23l12.1-12.1h24L257.4,23v18h-18V29h-12.1v48.2h12.1v-9
			h-6.1v-18h24.1v33.1L245.4,95.2z"/>
		<path class="st0" d="M354.3,95.3v5.9h-30.1v-5.9l-12.6-12.6V58.1l5.1-5.1l-5.1-5.1V23.4l12.6-12.6V4.9h30.1v5.9L367,23.4v19.4
			h-16.3v20.5h17.3v18.3L354.3,95.3z M365.6,65.7h-17.3V40.4h16.3V24.5l-12.7-12.6V7.3h-25.3v4.5L314,24.5v22.4l6.2,6.2l-6.2,6.1
			v22.4l12.6,12.6v4.6h25.3v-4.6l13.8-13.7V65.7z M350.1,91h-1.8v4.2h-18V91h-1.8l-10.8-10.8V60.7l7.6-7.6l-7.6-7.6V26l10.8-10.8
			h1.8v-4.2h18v4.2h1.8L360.9,26v10.8h-16.2v-5.4h-10.9V45h10.9v16.3h-10.9v13.5h10.9v-5.4h17.3v9.8L350.1,91z"/>
		<path class="st0" d="M460.8,101.2h-29.1l-15.6-15.5V65.1h12.5l-12.5-12.5V20.4l15.6-15.5h29.1l15.5,15.5V41h-12.5l12.5,12.5v32.2
			L460.8,101.2z M473.9,54.6l-16-16h16V21.5L459.8,7.3h-27l-14.2,14.2v30l16,16h-16v17l14.2,14.2h27l14.2-14.2V54.6z M458.3,95.2
			h-24l-12.1-12.1V71.1h18v6.1h12.1V62.1h-18l-12.1-12V23l12.1-12.1h24L470.3,23V35h-18V29h-12.1v15h18l12.1,12.1v27.1L458.3,95.2z"
			/>
		<path class="st0" d="M530.5,101.2v-4.8l-6,15l-6.1-15v4.8h-30.1V4.9h28.2l7.9,19.9l7.9-19.9h28.2v96.3H530.5z M558.2,7.3h-24
			l-9.6,23.9l-9.6-23.9h-24.1v91.5h25.3V83.9l8.5,21l8.4-21v14.9h25.3V7.3z M536.6,95.2V65.1l-12.1,30.1l-12.1-30.1v30.1h-18V10.9
			h18L524.5,41l12.1-30.1h18v84.3H536.6z"/>
		<path class="st0" d="M572.7,101.2V4.9h30.1v96.3H572.7z M600.4,7.3h-25.3v91.5h25.3V7.3z M578.7,95.2V10.9h18v84.3H578.7z"/>
		<path class="st0" d="M614.8,101.2V4.9h30.1v66.2H669v30.1H614.8z M666.6,73.5h-24.1V7.3h-25.3v91.5h49.4V73.5z M620.9,95.2V11h18
			v66.2H663v18H620.9z"/>
		<path class="st0" d="M678,101.2V4.9h54.2V35h-24.1v3h24.1v30.1h-24.1v3h24.1v30.1H678z M729.8,73.5h-24.1v-7.8h24.1V40.4h-24.1
			v-7.8h24.1V7.3h-49.4v91.5h49.4V73.5z M684.1,95.2V10.9h42.1v18h-24.1v15h24.1v18h-24.1v15.1h24.1v18H684.1z"/>
	</g>
</g>
<line class="st1" x1="28.1" y1="130.6" x2="719.1" y2="130.6"/>
<rect x="12.5" y="124" class="st2" width="725.6" height="14"/>
</svg>
